<svg xmlns="http://www.w3.org/2000/svg" viewBox="0 0 800 800"><defs><linearGradient id="gradient" x1="530.81" x2="269.19" y1="40.603" y2="759.397" gradientUnits="userSpaceOnUse"><stop offset="0" stop-color="#00ffbf"/><stop offset="1" stop-color="#00664d"/></linearGradient></defs><path d="M458.3 16.5c-35.834-21.713-80.766-21.713-116.6 0L79.2 175.6A112.5 112.5 0 0 0 25 271.8v256.4a112.5 112.5 0 0 0 54.2 96.2l262.5 159.1c35.834 21.713 80.766 21.713 116.6 0l262.5-159.1a112.5 112.5 0 0 0 54.2-96.2V271.8a112.5 112.5 0 0 0-54.2-96.2z" style="fill:url(#gradient)"/><path fill="#fff" d="M605.905 578.71a19.22 19.22 0 0 0-13.597-5.633H226.923V207.692a19.231 19.231 0 0 0-38.461 0v384.616c0 5.1 2.026 9.992 5.632 13.597a19.23 19.23 0 0 0 13.598 5.633h384.616c5.1 0 9.992-2.025 13.597-5.633a19.223 19.223 0 0 0 0-27.195Z" /><path fill="#fff" d="M297.576 470.028a19.23 19.23 0 0 0 13.45-5.156l63.333-63.334 63.333 63.334a19 19 0 0 0 13.59 5.641 19 19 0 0 0 13.59-5.641l82.564-82.564v45.64a19.5 19.5 0 0 0 5.705 13.526 19.5 19.5 0 0 0 13.526 5.706 19.5 19.5 0 0 0 13.525-5.706 19.5 19.5 0 0 0 5.705-13.525v-92.052a19.487 19.487 0 0 0-19.23-19.23h-89.744c-5.1 0-9.992 2.026-13.597 5.632a19.226 19.226 0 0 0 0 27.196 19.22 19.22 0 0 0 13.597 5.633h43.333l-68.974 68.975-63.333-63.334a19.23 19.23 0 0 0-27.18 0l-76.923 76.923a19.227 19.227 0 0 0 .471 26.708 19.23 19.23 0 0 0 13.26 5.628Z" /></svg>